<?xml version="1.0" encoding="UTF-8"?>
<svg width="700pt" height="700pt" version="1.1" viewBox="0 0 700 700" xmlns="http://www.w3.org/2000/svg" xmlns:xlink="http://www.w3.org/1999/xlink">
 <defs>
  <symbol id="u" overflow="visible">
   <path d="m10.578-0.625c-0.54297 0.28125-1.1094 0.49219-1.7031 0.625-0.59375 0.14453-1.2109 0.21875-1.8438 0.21875-1.918 0-3.4375-0.53516-4.5625-1.6094-1.125-1.0703-1.6875-2.5234-1.6875-4.3594 0-1.832 0.5625-3.2852 1.6875-4.3594 1.125-1.0703 2.6445-1.6094 4.5625-1.6094 0.63281 0 1.25 0.074219 1.8438 0.21875 0.59375 0.13672 1.1602 0.34375 1.7031 0.625v2.3906c-0.55469-0.375-1.0938-0.64844-1.625-0.82812-0.53125-0.17578-1.0938-0.26562-1.6875-0.26562-1.0625 0-1.8984 0.34375-2.5 1.0312-0.60547 0.67969-0.90625 1.6094-0.90625 2.7969s0.30078 2.125 0.90625 2.8125c0.60156 0.67969 1.4375 1.0156 2.5 1.0156 0.59375 0 1.1562-0.085937 1.6875-0.26562 0.53125-0.17578 1.0703-0.45312 1.625-0.82812z"/>
  </symbol>
  <symbol id="e" overflow="visible">
   <path d="m7.75-6.2812c-0.25-0.11328-0.49609-0.19531-0.73438-0.25-0.23047-0.0625-0.46875-0.09375-0.71875-0.09375-0.71094 0-1.2578 0.23047-1.6406 0.6875-0.375 0.46094-0.5625 1.1094-0.5625 1.9531v3.9844h-2.7656v-8.6406h2.7656v1.4219c0.35156-0.5625 0.75781-0.97266 1.2188-1.2344 0.45703-0.25781 1.0078-0.39062 1.6562-0.39062 0.09375 0 0.19141 0.007812 0.29688 0.015625 0.10156 0 0.25781 0.015625 0.46875 0.046875z"/>
  </symbol>
  <symbol id="b" overflow="visible">
   <path d="m9.9531-4.3438v0.78125h-6.4531c0.0625 0.65625 0.28906 1.1484 0.6875 1.4688 0.40625 0.32422 0.96875 0.48438 1.6875 0.48438 0.58203 0 1.1758-0.082031 1.7812-0.25 0.61328-0.17578 1.2422-0.44141 1.8906-0.79688v2.125c-0.65625 0.25-1.3125 0.4375-1.9688 0.5625-0.64844 0.125-1.2969 0.1875-1.9531 0.1875-1.5625 0-2.7812-0.39453-3.6562-1.1875-0.86719-0.78906-1.2969-1.9062-1.2969-3.3438 0-1.4062 0.42578-2.5078 1.2812-3.3125 0.85156-0.8125 2.0234-1.2188 3.5156-1.2188 1.3516 0 2.4375 0.41406 3.25 1.2344 0.82031 0.8125 1.2344 1.9023 1.2344 3.2656zm-2.8438-0.92188c0-0.51953-0.15625-0.94141-0.46875-1.2656-0.30469-0.32031-0.69922-0.48438-1.1875-0.48438-0.53125 0-0.96875 0.15234-1.3125 0.45312-0.33594 0.30469-0.53906 0.73438-0.60938 1.2969z"/>
  </symbol>
  <symbol id="d" overflow="visible">
   <path d="m5.2031-3.8906c-0.58594 0-1.0234 0.10156-1.3125 0.29688-0.28125 0.19922-0.42188 0.48438-0.42188 0.85938 0 0.35547 0.11328 0.63281 0.34375 0.82812 0.23828 0.19922 0.56641 0.29688 0.98438 0.29688 0.50781 0 0.94141-0.1875 1.2969-0.5625 0.36328-0.375 0.54688-0.84375 0.54688-1.4062v-0.3125zm4.2188-1.0312v4.9219h-2.7812v-1.2812c-0.375 0.52344-0.79688 0.90234-1.2656 1.1406-0.46094 0.23828-1.0234 0.35938-1.6875 0.35938-0.88672 0-1.6094-0.25781-2.1719-0.78125-0.5625-0.51953-0.84375-1.1953-0.84375-2.0312 0-1.0078 0.34766-1.75 1.0469-2.2188 0.69531-0.47656 1.7891-0.71875 3.2812-0.71875h1.6406v-0.21875c0-0.4375-0.17969-0.75391-0.53125-0.95312-0.34375-0.20703-0.88281-0.3125-1.6094-0.3125-0.58594 0-1.1328 0.0625-1.6406 0.1875-0.51172 0.11719-0.98438 0.29297-1.4219 0.53125v-2.1094c0.59375-0.14453 1.1875-0.25391 1.7812-0.32812 0.59375-0.070313 1.1875-0.10938 1.7812-0.10938 1.5625 0 2.6875 0.30859 3.375 0.92188 0.69531 0.61719 1.0469 1.6172 1.0469 3z"/>
  </symbol>
  <symbol id="c" overflow="visible">
   <path d="m4.3438-11.094v2.4531h2.8438v1.9688h-2.8438v3.6719c0 0.39844 0.078125 0.66797 0.23438 0.8125 0.16406 0.14844 0.48438 0.21875 0.95312 0.21875h1.4219v1.9688h-2.375c-1.0859 0-1.8555-0.22266-2.3125-0.67188-0.46094-0.45703-0.6875-1.2344-0.6875-2.3281v-3.6719h-1.375v-1.9688h1.375v-2.4531z"/>
  </symbol>
  <symbol id="k" overflow="visible">
   <path d="m7.2031-7.375v-4.625h2.7812v12h-2.7812v-1.25c-0.375 0.51172-0.79297 0.88672-1.25 1.125-0.46094 0.22656-0.99219 0.34375-1.5938 0.34375-1.0625 0-1.9375-0.42188-2.625-1.2656s-1.0312-1.9297-1.0312-3.2656c0-1.332 0.34375-2.4219 1.0312-3.2656s1.5625-1.2656 2.625-1.2656c0.59375 0 1.1172 0.12109 1.5781 0.35938 0.46875 0.24219 0.89062 0.60938 1.2656 1.1094zm-1.8125 5.5938c0.58203 0 1.0312-0.21094 1.3438-0.64062 0.3125-0.4375 0.46875-1.0664 0.46875-1.8906 0-0.82031-0.15625-1.4453-0.46875-1.875-0.3125-0.4375-0.76172-0.65625-1.3438-0.65625-0.59375 0-1.0469 0.21875-1.3594 0.65625-0.30469 0.42969-0.45312 1.0547-0.45312 1.875 0 0.82422 0.14844 1.4531 0.45312 1.8906 0.3125 0.42969 0.76562 0.64062 1.3594 0.64062z"/>
  </symbol>
  <symbol id="j" overflow="visible">
   <path d="m5.9219-1.7812c0.59375 0 1.0469-0.21094 1.3594-0.64062 0.3125-0.4375 0.46875-1.0664 0.46875-1.8906 0-0.82031-0.15625-1.4453-0.46875-1.875-0.3125-0.4375-0.76562-0.65625-1.3594-0.65625s-1.0469 0.21875-1.3594 0.65625-0.46875 1.0625-0.46875 1.875c0 0.82422 0.15625 1.4531 0.46875 1.8906 0.3125 0.42969 0.76562 0.64062 1.3594 0.64062zm-1.8281-5.5938c0.375-0.5 0.78906-0.86719 1.25-1.1094 0.46875-0.23828 1.0039-0.35938 1.6094-0.35938 1.0625 0 1.9297 0.42188 2.6094 1.2656 0.6875 0.84375 1.0312 1.9336 1.0312 3.2656 0 1.3359-0.34375 2.4219-1.0312 3.2656-0.67969 0.84375-1.5469 1.2656-2.6094 1.2656-0.60547 0-1.1406-0.12109-1.6094-0.35938-0.46094-0.23828-0.875-0.60938-1.25-1.1094v1.25h-2.7656v-12h2.7656z"/>
  </symbol>
  <symbol id="g" overflow="visible">
   <path d="m0.1875-8.6406h2.7656l2.3281 5.8594 1.9688-5.8594h2.7656l-3.6406 9.4531c-0.36719 0.96875-0.79297 1.6406-1.2812 2.0156-0.48047 0.38281-1.1211 0.57812-1.9219 0.57812h-1.5938v-1.8125h0.85938c0.46875 0 0.80469-0.074219 1.0156-0.21875 0.21875-0.14844 0.39062-0.41406 0.51562-0.79688l0.078125-0.25z"/>
  </symbol>
  <symbol id="i" overflow="visible">
   <path d="m11.797-0.85938c-0.74219 0.36719-1.5117 0.63672-2.3125 0.8125-0.79297 0.17578-1.6094 0.26562-2.4531 0.26562-1.918 0-3.4375-0.53516-4.5625-1.6094-1.125-1.0703-1.6875-2.5234-1.6875-4.3594 0-1.8516 0.57031-3.3125 1.7188-4.375 1.1445-1.0625 2.707-1.5938 4.6875-1.5938 0.76953 0 1.5039 0.074219 2.2031 0.21875 0.69531 0.13672 1.3594 0.34375 1.9844 0.625v2.3906c-0.64844-0.36328-1.2891-0.63281-1.9219-0.8125-0.63672-0.1875-1.2734-0.28125-1.9062-0.28125-1.1797 0-2.0898 0.33594-2.7344 1-0.63672 0.65625-0.95312 1.6016-0.95312 2.8281 0 1.2188 0.30469 2.1641 0.92188 2.8281 0.61328 0.66797 1.4883 1 2.625 1 0.3125 0 0.59766-0.019531 0.85938-0.0625 0.26953-0.039063 0.50781-0.10156 0.71875-0.1875v-2.2344h-1.8125v-1.9844h4.625z"/>
  </symbol>
  <symbol id="f" overflow="visible">
   <path d="m10.016-5.2656v5.2656h-2.7812v-4.0312c0-0.73828-0.015625-1.25-0.046875-1.5312-0.03125-0.28906-0.089844-0.5-0.17188-0.625-0.11719-0.1875-0.26562-0.32812-0.45312-0.42188-0.17969-0.10156-0.38672-0.15625-0.625-0.15625-0.57422 0-1.0273 0.22656-1.3594 0.67188-0.32422 0.4375-0.48438 1.0547-0.48438 1.8438v4.25h-2.7656v-8.6406h2.7656v1.2656c0.41406-0.5 0.85156-0.86719 1.3125-1.1094 0.46875-0.23828 0.98828-0.35938 1.5625-0.35938 1 0 1.7539 0.30859 2.2656 0.92188 0.51953 0.60547 0.78125 1.4922 0.78125 2.6562z"/>
  </symbol>
  <symbol id="t" overflow="visible">
   <path d="m1.4531-11.516h2.9688v4.2031l4.2812-4.2031h3.4531l-5.5469 5.4531 6.1094 6.0625h-3.7188l-4.5781-4.5312v4.5312h-2.9688z"/>
  </symbol>
  <symbol id="h" overflow="visible">
   <path d="m10.016-5.2656v5.2656h-2.7812v-4.0156c0-0.75-0.015625-1.2656-0.046875-1.5469-0.03125-0.28906-0.089844-0.5-0.17188-0.625-0.11719-0.1875-0.26562-0.32812-0.45312-0.42188-0.17969-0.10156-0.38672-0.15625-0.625-0.15625-0.57422 0-1.0273 0.22656-1.3594 0.67188-0.32422 0.4375-0.48438 1.0547-0.48438 1.8438v4.25h-2.7656v-12h2.7656v4.625c0.41406-0.5 0.85156-0.86719 1.3125-1.1094 0.46875-0.23828 0.98828-0.35938 1.5625-0.35938 1 0 1.7539 0.30859 2.2656 0.92188 0.51953 0.60547 0.78125 1.4922 0.78125 2.6562z"/>
  </symbol>
  <symbol id="a" overflow="visible">
   <path d="m5.4375-6.875c-0.61719 0-1.0859 0.22656-1.4062 0.67188-0.3125 0.4375-0.46875 1.0703-0.46875 1.8906 0 0.83594 0.15625 1.4688 0.46875 1.9062 0.32031 0.4375 0.78906 0.65625 1.4062 0.65625 0.60156 0 1.0625-0.21875 1.375-0.65625 0.32031-0.4375 0.48438-1.0703 0.48438-1.9062 0-0.82031-0.16406-1.4531-0.48438-1.8906-0.3125-0.44531-0.77344-0.67188-1.375-0.67188zm0-1.9688c1.4883 0 2.6484 0.40234 3.4844 1.2031 0.83203 0.80469 1.25 1.9141 1.25 3.3281 0 1.418-0.41797 2.5273-1.25 3.3281-0.83594 0.80469-1.9961 1.2031-3.4844 1.2031-1.4922 0-2.6562-0.39844-3.5-1.2031-0.84375-0.80078-1.2656-1.9102-1.2656-3.3281 0-1.4141 0.42188-2.5234 1.2656-3.3281 0.84375-0.80078 2.0078-1.2031 3.5-1.2031z"/>
  </symbol>
  <symbol id="s" overflow="visible">
   <path d="m1.4531-11.516h2.9688v9.2656h5.2188v2.25h-8.1875z"/>
  </symbol>
  <symbol id="r" overflow="visible">
   <path d="m7.0156-12v1.8125h-1.5312c-0.39844 0-0.67188 0.074219-0.82812 0.21875-0.14844 0.13672-0.21875 0.38281-0.21875 0.73438v0.59375h2.3594v1.9688h-2.3594v6.6719h-2.7656v-6.6719h-1.375v-1.9688h1.375v-0.59375c0-0.94531 0.25781-1.6445 0.78125-2.0938 0.53125-0.44531 1.3438-0.67188 2.4375-0.67188z"/>
  </symbol>
  <symbol id="q" overflow="visible">
   <path d="m9.3281-7.2031c0.35156-0.53125 0.76953-0.9375 1.25-1.2188 0.47656-0.28125 1.0039-0.42188 1.5781-0.42188 1 0 1.7539 0.30859 2.2656 0.92188 0.51953 0.60547 0.78125 1.4922 0.78125 2.6562v5.2656h-2.7656v-4.5-0.21875c0.007812-0.070312 0.015625-0.17188 0.015625-0.29688 0-0.61328-0.09375-1.0547-0.28125-1.3281-0.17969-0.28125-0.46484-0.42188-0.85938-0.42188-0.53125 0-0.9375 0.21875-1.2188 0.65625-0.28125 0.42969-0.42969 1.0469-0.4375 1.8594v4.25h-2.7812v-4.5c0-0.95703-0.085938-1.5703-0.25-1.8438-0.16797-0.28125-0.46094-0.42188-0.875-0.42188-0.53125 0-0.94531 0.21875-1.2344 0.65625-0.28125 0.42969-0.42188 1.0469-0.42188 1.8594v4.25h-2.7812v-8.6406h2.7812v1.2656c0.33203-0.48828 0.71875-0.85156 1.1562-1.0938 0.44531-0.25 0.92969-0.375 1.4531-0.375 0.60156 0 1.1328 0.14844 1.5938 0.4375 0.45703 0.28125 0.80078 0.68359 1.0312 1.2031z"/>
  </symbol>
  <symbol id="p" overflow="visible">
   <path d="m1.4531-11.516h3.3125l4.1875 7.8906v-7.8906h2.8125v11.516h-3.3125l-4.1875-7.9062v7.9062h-2.8125z"/>
  </symbol>
  <symbol id="o" overflow="visible">
   <path d="m1.2344-3.3594v-5.2812h2.7812v0.85938c0 0.46875-0.007813 1.0586-0.015625 1.7656v1.4219c0 0.6875 0.015625 1.1875 0.046875 1.5 0.039063 0.30469 0.10156 0.52344 0.1875 0.65625 0.11328 0.1875 0.25781 0.33594 0.4375 0.4375 0.1875 0.09375 0.39844 0.14062 0.64062 0.14062 0.57031 0 1.0195-0.21875 1.3438-0.65625 0.33203-0.44531 0.5-1.0664 0.5-1.8594v-4.2656h2.7656v8.6406h-2.7656v-1.25c-0.41797 0.5-0.85938 0.87109-1.3281 1.1094-0.46094 0.23828-0.96875 0.35938-1.5312 0.35938-1 0-1.7617-0.30078-2.2812-0.90625-0.52344-0.61328-0.78125-1.5039-0.78125-2.6719z"/>
  </symbol>
  <symbol id="n" overflow="visible">
   <path d="m1.4531-11.516h4.9219c1.4688 0 2.5938 0.32812 3.375 0.98438 0.78906 0.64844 1.1875 1.5703 1.1875 2.7656 0 1.2109-0.39844 2.1406-1.1875 2.7969-0.78125 0.64844-1.9062 0.96875-3.375 0.96875h-1.9531v4h-2.9688zm2.9688 2.1562v3.2188h1.6406c0.57031 0 1.0156-0.14062 1.3281-0.42188 0.32031-0.28125 0.48438-0.67969 0.48438-1.2031 0-0.50781-0.16406-0.89844-0.48438-1.1719-0.3125-0.28125-0.75781-0.42188-1.3281-0.42188z"/>
  </symbol>
  <symbol id="m" overflow="visible">
   <path d="m1.3281-8.6406h2.7656v8.4844c0 1.1562-0.28125 2.0352-0.84375 2.6406-0.55469 0.61328-1.3555 0.92188-2.4062 0.92188h-1.375v-1.8125h0.48438c0.51953 0 0.87891-0.12109 1.0781-0.35938 0.19531-0.23047 0.29688-0.69531 0.29688-1.3906zm0-3.3594h2.7656v2.25h-2.7656z"/>
  </symbol>
  <symbol id="l" overflow="visible">
   <path d="m8.3125-8.375v2.2656c-0.375-0.25781-0.75781-0.45312-1.1406-0.57812-0.375-0.125-0.76562-0.1875-1.1719-0.1875-0.77344 0-1.3711 0.23047-1.7969 0.6875-0.42969 0.44922-0.64062 1.0742-0.64062 1.875 0 0.8125 0.21094 1.4453 0.64062 1.8906 0.42578 0.44922 1.0234 0.67188 1.7969 0.67188 0.4375 0 0.84766-0.0625 1.2344-0.1875 0.38281-0.13281 0.74219-0.32812 1.0781-0.57812v2.2656c-0.4375 0.15625-0.88281 0.26953-1.3281 0.34375-0.4375 0.082031-0.88281 0.125-1.3281 0.125-1.5625 0-2.7891-0.39453-3.6719-1.1875-0.875-0.80078-1.3125-1.9141-1.3125-3.3438 0-1.4258 0.4375-2.5352 1.3125-3.3281 0.88281-0.80078 2.1094-1.2031 3.6719-1.2031 0.44531 0 0.89062 0.042969 1.3281 0.125 0.44531 0.074219 0.89062 0.1875 1.3281 0.34375z"/>
  </symbol>
 </defs>
 <g>
  <path d="m290 97.66h-41.594v83.191h41.594zm-10.398 72.793h-20.797v-13.863h20.797z"/>
  <path d="m359.33 97.66h86.656v207.98h-86.656z"/>
  <path d="m300.4 180.85h41.594v-83.191h-41.594zm10.398-24.266h20.797v13.863h-20.797z"/>
  <path d="m290 191.25h-41.594v83.191h41.594zm-10.398 72.789h-20.797v-13.863h20.797z"/>
  <path d="m300.4 274.44h41.594v-83.188h-41.594zm10.398-24.262h20.797v13.863h-20.797z"/>
  <path d="m290 284.84h-41.594v83.191h41.594zm-10.398 72.793h-20.797v-13.863h20.797z"/>
  <path d="m300.4 368.03h41.594v-83.191h-41.594zm10.398-24.266h20.797v13.863h-20.797z"/>
  <path d="m359.33 316.04h13.863v51.992h-13.863z"/>
  <path d="m383.59 316.04h13.863v51.992h-13.863z"/>
  <path d="m407.86 316.04h13.863v51.992h-13.863z"/>
  <path d="m432.12 316.04h13.863v51.992h-13.863z"/>
  <path d="m248.41 56.066h197.57v27.73h-197.57z"/>
  <path d="m104.64 182.62 70.762 20.23 0.78516-3.2734-81.848-33.461 3.6914 33.773-63.398-17.027-2.8008 14.43 78.25 15.438z"/>
  <path d="m191.04 177.7-46.02-58.973-11.48 26.359-39.387-39.152-8.125 9.4141 50.961 44.227 8.6641-24.395 43.441 44.582z"/>
  <path d="m182.6 231.23-73.539 4.207 14.887 24.066-53.762 9.9453 3.0703 11.863 64.359-16.484-14.891-20.695 60.441-10.18z"/>
  <path d="m602.62 157.17-73.379 5.6406 0.39844 3.3398 88.375 2.9062-15.207-30.383 65.367-6.0859-2.3906-14.5-78.734 12.742z"/>
  <path d="m580.66 215.93-56.23-26.699-1.1094 2.6172 63.656 39.285 1.5977-28.711 50.547 23.008 4.3438-11.648-63.164-23.738z"/>
  <path d="m512.62 138.71 67.484-29.516-22.332-17.387 46.949-28.023-7.0039-10.055-54.605 37.836 21.152 14.227-53.129 30.562z"/>
  <path d="m542.15 249.71h-61.504v-228.3h-266.9v21.266h-117.28v-42.672h-9.4844v42.672h-50.574v9.4844h177.33v350.54h36.027v47.73h-129.59v9.4844h55.316l-0.003907 74.277h9.4844v-74.281h74.281v-57.215h81.656v157.31h236.54v-9.4844h-227.06v-147.83h43.199v100.41h152.53v-9.4844l-143.05 0.007813v-90.93h77.574v-143.5h52.02v61.637h53.734v-9.4844h-44.254zm-78.836 135.65h-232.23v-346.62h232.24v346.62z"/>
  <use x="31.828125" y="607.414062" xlink:href="#u"/>
  <use x="43.425781" y="607.414062" xlink:href="#e"/>
  <use x="51.21875" y="607.414062" xlink:href="#b"/>
  <use x="61.9375" y="607.414062" xlink:href="#d"/>
  <use x="72.605469" y="607.414062" xlink:href="#c"/>
  <use x="80.160156" y="607.414062" xlink:href="#b"/>
  <use x="90.878906" y="607.414062" xlink:href="#k"/>
  <use x="107.691406" y="607.414062" xlink:href="#j"/>
  <use x="119.007812" y="607.414062" xlink:href="#g"/>
  <use x="134.808594" y="607.414062" xlink:href="#i"/>
  <use x="147.78125" y="607.414062" xlink:href="#d"/>
  <use x="158.449219" y="607.414062" xlink:href="#f"/>
  <use x="175.199219" y="607.414062" xlink:href="#t"/>
  <use x="187.449219" y="607.414062" xlink:href="#h"/>
  <use x="198.699219" y="607.414062" xlink:href="#a"/>
  <use x="209.558594" y="607.414062" xlink:href="#a"/>
  <use x="220.414063" y="607.414062" xlink:href="#f"/>
  <use x="237.167969" y="607.414062" xlink:href="#s"/>
  <use x="247.238281" y="607.414062" xlink:href="#d"/>
  <use x="257.902344" y="607.414062" xlink:href="#g"/>
  <use x="31.828125" y="623.21875" xlink:href="#r"/>
  <use x="38.703125" y="623.21875" xlink:href="#e"/>
  <use x="46.496094" y="623.21875" xlink:href="#a"/>
  <use x="57.355469" y="623.21875" xlink:href="#q"/>
  <use x="79.324219" y="623.21875" xlink:href="#c"/>
  <use x="86.878906" y="623.21875" xlink:href="#h"/>
  <use x="98.132812" y="623.21875" xlink:href="#b"/>
  <use x="114.351562" y="623.21875" xlink:href="#p"/>
  <use x="127.578125" y="623.21875" xlink:href="#a"/>
  <use x="138.4375" y="623.21875" xlink:href="#o"/>
  <use x="149.6875" y="623.21875" xlink:href="#f"/>
  <use x="166.441406" y="623.21875" xlink:href="#n"/>
  <use x="178.023438" y="623.21875" xlink:href="#e"/>
  <use x="185.820313" y="623.21875" xlink:href="#a"/>
  <use x="196.675781" y="623.21875" xlink:href="#m"/>
  <use x="202.09375" y="623.21875" xlink:href="#b"/>
  <use x="212.8125" y="623.21875" xlink:href="#l"/>
  <use x="222.183594" y="623.21875" xlink:href="#c"/>
 </g>
</svg>
