<?xml version="1.0" encoding="UTF-8"?>
<svg width="700pt" height="700pt" version="1.1" viewBox="0 0 700 700" xmlns="http://www.w3.org/2000/svg" xmlns:xlink="http://www.w3.org/1999/xlink">
 <defs>
  <symbol id="w" overflow="visible">
   <path d="m18.766-1.125c-0.96875 0.5-1.9805 0.875-3.0312 1.125-1.043 0.25781-2.1367 0.39062-3.2812 0.39062-3.3984 0-6.0898-0.94531-8.0781-2.8438-1.9922-1.9062-2.9844-4.4844-2.9844-7.7344 0-3.2578 0.99219-5.8359 2.9844-7.7344 1.9883-1.9062 4.6797-2.8594 8.0781-2.8594 1.1445 0 2.2383 0.13281 3.2812 0.39062 1.0508 0.25 2.0625 0.625 3.0312 1.125v4.2188c-0.98047-0.65625-1.9453-1.1406-2.8906-1.4531-0.94922-0.3125-1.9492-0.46875-3-0.46875-1.875 0-3.3516 0.60547-4.4219 1.8125-1.0742 1.1992-1.6094 2.8555-1.6094 4.9688 0 2.1055 0.53516 3.7617 1.6094 4.9688 1.0703 1.1992 2.5469 1.7969 4.4219 1.7969 1.0508 0 2.0508-0.14844 3-0.45312 0.94531-0.3125 1.9102-0.80078 2.8906-1.4688z"/>
  </symbol>
  <symbol id="c" overflow="visible">
   <path d="m13.734-11.141c-0.4375-0.19531-0.87109-0.34375-1.2969-0.4375-0.41797-0.10156-0.83984-0.15625-1.2656-0.15625-1.2617 0-2.2305 0.40625-2.9062 1.2188-0.67969 0.80469-1.0156 1.9531-1.0156 3.4531v7.0625h-4.8906v-15.312h4.8906v2.5156c0.625-1 1.3438-1.7266 2.1562-2.1875 0.82031-0.46875 1.8008-0.70312 2.9375-0.70312 0.16406 0 0.34375 0.011719 0.53125 0.03125 0.19531 0.011719 0.47656 0.039062 0.84375 0.078125z"/>
  </symbol>
  <symbol id="a" overflow="visible">
   <path d="m17.641-7.7031v1.4062h-11.453c0.125 1.1484 0.53906 2.0078 1.25 2.5781 0.70703 0.57422 1.7031 0.85938 2.9844 0.85938 1.0312 0 2.082-0.14844 3.1562-0.45312 1.082-0.3125 2.1914-0.77344 3.3281-1.3906v3.7656c-1.1562 0.4375-2.3125 0.76562-3.4688 0.98438-1.1562 0.22656-2.3125 0.34375-3.4688 0.34375-2.7734 0-4.9297-0.70312-6.4688-2.1094-1.5312-1.4062-2.2969-3.3789-2.2969-5.9219 0-2.5 0.75391-4.4609 2.2656-5.8906 1.5078-1.4375 3.582-2.1562 6.2188-2.1562 2.4062 0 4.332 0.73047 5.7812 2.1875 1.4453 1.4492 2.1719 3.3828 2.1719 5.7969zm-5.0312-1.625c0-0.92578-0.27344-1.6719-0.8125-2.2344-0.54297-0.57031-1.25-0.85938-2.125-0.85938-0.94922 0-1.7188 0.26562-2.3125 0.79688s-0.96484 1.2969-1.1094 2.2969z"/>
  </symbol>
  <symbol id="f" overflow="visible">
   <path d="m9.2188-6.8906c-1.0234 0-1.793 0.17188-2.3125 0.51562-0.51172 0.34375-0.76562 0.85547-0.76562 1.5312 0 0.625 0.20703 1.1172 0.625 1.4688 0.41406 0.34375 0.98828 0.51562 1.7188 0.51562 0.92578 0 1.7031-0.32812 2.3281-0.98438 0.63281-0.66406 0.95312-1.4922 0.95312-2.4844v-0.5625zm7.4688-1.8438v8.7344h-4.9219v-2.2656c-0.65625 0.92969-1.3984 1.6055-2.2188 2.0312-0.82422 0.41406-1.8242 0.625-3 0.625-1.5859 0-2.8711-0.45703-3.8594-1.375-0.99219-0.92578-1.4844-2.1289-1.4844-3.6094 0-1.7891 0.61328-3.1016 1.8438-3.9375 1.2383-0.84375 3.1797-1.2656 5.8281-1.2656h2.8906v-0.39062c0-0.76953-0.30859-1.332-0.92188-1.6875-0.61719-0.36328-1.5703-0.54688-2.8594-0.54688-1.0547 0-2.0312 0.10547-2.9375 0.3125-0.89844 0.21094-1.7305 0.52344-2.5 0.9375v-3.7344c1.0391-0.25 2.0859-0.44141 3.1406-0.57812 1.0625-0.13281 2.125-0.20312 3.1875-0.20312 2.7578 0 4.75 0.54688 5.9688 1.6406 1.2266 1.0859 1.8438 2.8555 1.8438 5.3125z"/>
  </symbol>
  <symbol id="b" overflow="visible">
   <path d="m7.7031-19.656v4.3438h5.0469v3.5h-5.0469v6.5c0 0.71094 0.14062 1.1875 0.42188 1.4375s0.83594 0.375 1.6719 0.375h2.5156v3.5h-4.1875c-1.9375 0-3.3125-0.39844-4.125-1.2031-0.80469-0.8125-1.2031-2.1797-1.2031-4.1094v-6.5h-2.4219v-3.5h2.4219v-4.3438z"/>
  </symbol>
  <symbol id="m" overflow="visible">
   <path d="m12.766-13.078v-8.2031h4.9219v21.281h-4.9219v-2.2188c-0.66797 0.90625-1.4062 1.5703-2.2188 1.9844s-1.7578 0.625-2.8281 0.625c-1.8867 0-3.4336-0.75-4.6406-2.25-1.2109-1.5-1.8125-3.4258-1.8125-5.7812 0-2.3633 0.60156-4.2969 1.8125-5.7969 1.207-1.5 2.7539-2.25 4.6406-2.25 1.0625 0 2 0.21484 2.8125 0.64062 0.82031 0.42969 1.5664 1.0859 2.2344 1.9688zm-3.2188 9.9219c1.0391 0 1.8359-0.37891 2.3906-1.1406 0.55078-0.76953 0.82812-1.8828 0.82812-3.3438 0-1.457-0.27734-2.5664-0.82812-3.3281-0.55469-0.76953-1.3516-1.1562-2.3906-1.1562-1.043 0-1.8398 0.38672-2.3906 1.1562-0.55469 0.76172-0.82812 1.8711-0.82812 3.3281 0 1.4609 0.27344 2.5742 0.82812 3.3438 0.55078 0.76172 1.3477 1.1406 2.3906 1.1406z"/>
  </symbol>
  <symbol id="l" overflow="visible">
   <path d="m10.5-3.1562c1.0508 0 1.8516-0.37891 2.4062-1.1406 0.55078-0.76953 0.82812-1.8828 0.82812-3.3438 0-1.457-0.27734-2.5664-0.82812-3.3281-0.55469-0.76953-1.3555-1.1562-2.4062-1.1562-1.0547 0-1.8594 0.38672-2.4219 1.1562-0.55469 0.77344-0.82812 1.8828-0.82812 3.3281 0 1.4492 0.27344 2.5586 0.82812 3.3281 0.5625 0.77344 1.3672 1.1562 2.4219 1.1562zm-3.25-9.9219c0.67578-0.88281 1.4219-1.5391 2.2344-1.9688 0.82031-0.42578 1.7656-0.64062 2.8281-0.64062 1.8945 0 3.4453 0.75 4.6562 2.25 1.207 1.5 1.8125 3.4336 1.8125 5.7969 0 2.3555-0.60547 4.2812-1.8125 5.7812-1.2109 1.5-2.7617 2.25-4.6562 2.25-1.0625 0-2.0078-0.21094-2.8281-0.625-0.8125-0.42578-1.5586-1.0859-2.2344-1.9844v2.2188h-4.8906v-21.281h4.8906z"/>
  </symbol>
  <symbol id="k" overflow="visible">
   <path d="m0.34375-15.312h4.8906l4.125 10.391 3.5-10.391h4.8906l-6.4375 16.766c-0.64844 1.6953-1.4023 2.8828-2.2656 3.5625-0.86719 0.6875-2 1.0312-3.4062 1.0312h-2.8438v-3.2188h1.5312c0.83203 0 1.4375-0.13672 1.8125-0.40625 0.38281-0.26172 0.67969-0.73047 0.89062-1.4062l0.14062-0.42188z"/>
  </symbol>
  <symbol id="j" overflow="visible">
   <path d="m16.781-19.766v4.3125c-1.125-0.5-2.2266-0.875-3.2969-1.125-1.0625-0.25781-2.0703-0.39062-3.0156-0.39062-1.25 0-2.1797 0.17969-2.7812 0.53125-0.60547 0.34375-0.90625 0.88281-0.90625 1.6094 0 0.54297 0.20312 0.96875 0.60938 1.2812 0.40625 0.30469 1.1406 0.5625 2.2031 0.78125l2.25 0.45312c2.2695 0.44922 3.8789 1.1406 4.8281 2.0781 0.95703 0.92969 1.4375 2.2461 1.4375 3.9531 0 2.25-0.66797 3.9297-2 5.0312-1.3359 1.0938-3.3711 1.6406-6.1094 1.6406-1.3047 0-2.6055-0.125-3.9062-0.375-1.3047-0.23828-2.6055-0.59766-3.9062-1.0781v-4.4531c1.3008 0.69922 2.5625 1.2266 3.7812 1.5781 1.2188 0.34375 2.3906 0.51562 3.5156 0.51562 1.1562 0 2.0352-0.1875 2.6406-0.5625 0.61328-0.38281 0.92188-0.9375 0.92188-1.6562 0-0.63281-0.21094-1.125-0.625-1.4688-0.41797-0.34375-1.2461-0.65625-2.4844-0.9375l-2.0312-0.4375c-2.043-0.4375-3.5391-1.1328-4.4844-2.0938-0.9375-0.95703-1.4062-2.25-1.4062-3.875 0-2.0312 0.65625-3.5938 1.9688-4.6875s3.1953-1.6406 5.6562-1.6406c1.125 0 2.2734 0.085938 3.4531 0.25 1.1875 0.16797 2.4141 0.42188 3.6875 0.76562z"/>
  </symbol>
  <symbol id="i" overflow="visible">
   <path d="m12.422-21.281v3.2188h-2.7031c-0.6875 0-1.1719 0.125-1.4531 0.375-0.27344 0.25-0.40625 0.6875-0.40625 1.3125v1.0625h4.1875v3.5h-4.1875v11.812h-4.8906v-11.812h-2.4375v-3.5h2.4375v-1.0625c0-1.6641 0.46094-2.8984 1.3906-3.7031 0.92578-0.80078 2.3672-1.2031 4.3281-1.2031z"/>
  </symbol>
  <symbol id="e" overflow="visible">
   <path d="m2.1875-5.9688v-9.3438h4.9219v1.5312c0 0.83594-0.007813 1.875-0.015625 3.125-0.011719 1.25-0.015625 2.0859-0.015625 2.5 0 1.2422 0.03125 2.1328 0.09375 2.6719 0.070313 0.54297 0.17969 0.93359 0.32812 1.1719 0.20703 0.32422 0.47266 0.57422 0.79688 0.75 0.32031 0.16797 0.69141 0.25 1.1094 0.25 1.0195 0 1.8203-0.39062 2.4062-1.1719 0.58203-0.78125 0.875-1.8672 0.875-3.2656v-7.5625h4.8906v15.312h-4.8906v-2.2188c-0.74219 0.89844-1.5234 1.5586-2.3438 1.9844-0.82422 0.41406-1.7344 0.625-2.7344 0.625-1.7617 0-3.1055-0.53906-4.0312-1.625-0.92969-1.082-1.3906-2.6602-1.3906-4.7344z"/>
  </symbol>
  <symbol id="h" overflow="visible">
   <path d="m2.3594-21.281h4.8906v21.281h-4.8906z"/>
  </symbol>
  <symbol id="v" overflow="visible">
   <path d="m2.5781-20.406h6.6875l4.6562 10.922 4.6719-10.922h6.6875v20.406h-4.9844v-14.938l-4.7031 11.016h-3.3281l-4.7031-11.016v14.938h-4.9844z"/>
  </symbol>
  <symbol id="u" overflow="visible">
   <path d="m14.312-14.828v3.7188c-1.043-0.4375-2.0547-0.76562-3.0312-0.98438-0.98047-0.21875-1.9023-0.32812-2.7656-0.32812-0.92969 0-1.6211 0.11719-2.0781 0.34375-0.44922 0.23047-0.67188 0.58984-0.67188 1.0781 0 0.38672 0.17188 0.68359 0.51562 0.89062 0.34375 0.21094 0.95703 0.36719 1.8438 0.46875l0.85938 0.125c2.5078 0.32422 4.1953 0.85156 5.0625 1.5781 0.86328 0.73047 1.2969 1.8711 1.2969 3.4219 0 1.6367-0.60547 2.8672-1.8125 3.6875-1.1992 0.8125-2.9922 1.2188-5.375 1.2188-1.0234 0-2.0742-0.078125-3.1562-0.23438-1.0742-0.15625-2.1797-0.39453-3.3125-0.71875v-3.7188c0.96875 0.48047 1.9609 0.83984 2.9844 1.0781 1.0312 0.23047 2.0781 0.34375 3.1406 0.34375 0.95703 0 1.6758-0.12891 2.1562-0.39062 0.47656-0.26953 0.71875-0.66406 0.71875-1.1875 0-0.4375-0.16797-0.75781-0.5-0.96875-0.33594-0.21875-0.99609-0.38281-1.9844-0.5l-0.85938-0.10938c-2.1797-0.26953-3.7031-0.77344-4.5781-1.5156-0.875-0.73828-1.3125-1.8594-1.3125-3.3594 0-1.625 0.55078-2.8281 1.6562-3.6094 1.1133-0.78906 2.8203-1.1875 5.125-1.1875 0.89453 0 1.8359 0.074219 2.8281 0.21875 1 0.13672 2.082 0.35156 3.25 0.64062z"/>
  </symbol>
  <symbol id="t" overflow="visible">
   <path d="m2.3594-15.312h4.8906v15.312h-4.8906zm0-5.9688h4.8906v4h-4.8906z"/>
  </symbol>
  <symbol id="g" overflow="visible">
   <path d="m16.547-12.766c0.61328-0.94531 1.3477-1.6719 2.2031-2.1719 0.85156-0.5 1.7891-0.75 2.8125-0.75 1.7578 0 3.0977 0.54688 4.0156 1.6406 0.92578 1.0859 1.3906 2.6562 1.3906 4.7188v9.3281h-4.9219v-7.9844-0.35938c0.007813-0.13281 0.015625-0.32031 0.015625-0.5625 0-1.082-0.16406-1.8633-0.48438-2.3438-0.3125-0.48828-0.82422-0.73438-1.5312-0.73438-0.92969 0-1.6484 0.38672-2.1562 1.1562-0.51172 0.76172-0.77344 1.8672-0.78125 3.3125v7.5156h-4.9219v-7.9844c0-1.6953-0.14844-2.7852-0.4375-3.2656-0.29297-0.48828-0.8125-0.73438-1.5625-0.73438-0.9375 0-1.6641 0.38672-2.1719 1.1562-0.51172 0.76172-0.76562 1.8594-0.76562 3.2969v7.5312h-4.9219v-15.312h4.9219v2.2344c0.60156-0.86328 1.2891-1.5156 2.0625-1.9531 0.78125-0.4375 1.6406-0.65625 2.5781-0.65625 1.0625 0 2 0.25781 2.8125 0.76562 0.8125 0.51172 1.4258 1.2305 1.8438 2.1562z"/>
  </symbol>
  <symbol id="d" overflow="visible">
   <path d="m9.6406-12.188c-1.0859 0-1.9141 0.39062-2.4844 1.1719-0.57422 0.78125-0.85938 1.9062-0.85938 3.375s0.28516 2.5938 0.85938 3.375c0.57031 0.77344 1.3984 1.1562 2.4844 1.1562 1.0625 0 1.875-0.38281 2.4375-1.1562 0.57031-0.78125 0.85938-1.9062 0.85938-3.375s-0.28906-2.5938-0.85938-3.375c-0.5625-0.78125-1.375-1.1719-2.4375-1.1719zm0-3.5c2.6328 0 4.6914 0.71484 6.1719 2.1406 1.4766 1.418 2.2188 3.3867 2.2188 5.9062 0 2.5117-0.74219 4.4805-2.2188 5.9062-1.4805 1.418-3.5391 2.125-6.1719 2.125-2.6484 0-4.7148-0.70703-6.2031-2.125-1.4922-1.4258-2.2344-3.3945-2.2344-5.9062 0-2.5195 0.74219-4.4883 2.2344-5.9062 1.4883-1.4258 3.5547-2.1406 6.2031-2.1406z"/>
  </symbol>
  <symbol id="s" overflow="visible">
   <path d="m17.75-9.3281v9.3281h-4.9219v-7.1094c0-1.3438-0.03125-2.2656-0.09375-2.7656s-0.16797-0.86719-0.3125-1.1094c-0.1875-0.3125-0.44922-0.55469-0.78125-0.73438-0.32422-0.17578-0.69531-0.26562-1.1094-0.26562-1.0234 0-1.8242 0.39844-2.4062 1.1875-0.58594 0.78125-0.875 1.8711-0.875 3.2656v7.5312h-4.8906v-21.281h4.8906v8.2031c0.73828-0.88281 1.5195-1.5391 2.3438-1.9688 0.83203-0.42578 1.75-0.64062 2.75-0.64062 1.7695 0 3.1133 0.54688 4.0312 1.6406 0.91406 1.0859 1.375 2.6562 1.375 4.7188z"/>
  </symbol>
  <symbol id="r" overflow="visible">
   <path d="m2.5781-20.406h5.875l7.4219 14v-14h4.9844v20.406h-5.875l-7.4219-14v14h-4.9844z"/>
  </symbol>
  <symbol id="q" overflow="visible">
   <path d="m17.75-9.3281v9.3281h-4.9219v-7.1406c0-1.3203-0.03125-2.2344-0.09375-2.7344s-0.16797-0.86719-0.3125-1.1094c-0.1875-0.3125-0.44922-0.55469-0.78125-0.73438-0.32422-0.17578-0.69531-0.26562-1.1094-0.26562-1.0234 0-1.8242 0.39844-2.4062 1.1875-0.58594 0.78125-0.875 1.8711-0.875 3.2656v7.5312h-4.8906v-15.312h4.8906v2.2344c0.73828-0.88281 1.5195-1.5391 2.3438-1.9688 0.83203-0.42578 1.75-0.64062 2.75-0.64062 1.7695 0 3.1133 0.54688 4.0312 1.6406 0.91406 1.0859 1.375 2.6562 1.375 4.7188z"/>
  </symbol>
  <symbol id="p" overflow="visible">
   <path d="m2.5781-20.406h8.7344c2.5938 0 4.582 0.57812 5.9688 1.7344 1.3945 1.1484 2.0938 2.7891 2.0938 4.9219 0 2.1367-0.69922 3.7812-2.0938 4.9375-1.3867 1.1562-3.375 1.7344-5.9688 1.7344h-3.4844v7.0781h-5.25zm5.25 3.8125v5.7031h2.9219c1.0195 0 1.8047-0.25 2.3594-0.75 0.5625-0.5 0.84375-1.2031 0.84375-2.1094 0-0.91406-0.28125-1.6172-0.84375-2.1094-0.55469-0.48828-1.3398-0.73438-2.3594-0.73438z"/>
  </symbol>
  <symbol id="o" overflow="visible">
   <path d="m2.3594-15.312h4.8906v15.031c0 2.0508-0.49609 3.6172-1.4844 4.7031-0.98047 1.082-2.4062 1.625-4.2812 1.625h-2.4219v-3.2188h0.85938c0.92578 0 1.5625-0.21094 1.9062-0.625 0.35156-0.41797 0.53125-1.2461 0.53125-2.4844zm0-5.9688h4.8906v4h-4.8906z"/>
  </symbol>
  <symbol id="n" overflow="visible">
   <path d="m14.719-14.828v3.9844c-0.65625-0.45703-1.3242-0.79688-2-1.0156-0.66797-0.21875-1.3594-0.32812-2.0781-0.32812-1.3672 0-2.4336 0.40234-3.2031 1.2031-0.76172 0.79297-1.1406 1.9062-1.1406 3.3438 0 1.4297 0.37891 2.543 1.1406 3.3438 0.76953 0.79297 1.8359 1.1875 3.2031 1.1875 0.75781 0 1.4844-0.10938 2.1719-0.32812 0.6875-0.22656 1.3203-0.56641 1.9062-1.0156v4c-0.76172 0.28125-1.5391 0.48828-2.3281 0.625-0.78125 0.14453-1.5742 0.21875-2.375 0.21875-2.7617 0-4.9219-0.70703-6.4844-2.125-1.5547-1.4141-2.3281-3.3828-2.3281-5.9062 0-2.5312 0.77344-4.5039 2.3281-5.9219 1.5625-1.4141 3.7227-2.125 6.4844-2.125 0.80078 0 1.5938 0.074219 2.375 0.21875 0.78125 0.13672 1.5547 0.35156 2.3281 0.64062z"/>
  </symbol>
 </defs>
 <g>
  <path d="m253.96 398.44c2.2383-8.3984 4.3867-15.871 6.4414-22.398-21.469-0.55859-40.137-1.2148-56-1.9609-22.586-0.94141-37.703-1.9609-45.367-3.0859l-37.801 47.887-5.6016 8.3984c-0.55469 1.4883-0.83203 2.332-0.83203 2.5195h0.55859l1.6797 0.83984 2.2383 0.28516c1.8633 0.74609 5.1367 1.3008 9.8008 1.6758l114.52 0.83984c1.6797-4.6719 3.2656-9.8008 4.7617-15.398zm23.238-68.043c0.18359-0.74609 0.37109-1.3008 0.55859-1.6758h-67.48c-4.2969 0-8.4961-0.46875-12.602-1.3984-1.8633-0.57031-3.2656-1.125-4.1992-1.6875l-2.2383 3.0859c-1.1211 1.8594-5.0352 7.2734-11.762 16.23l-18.48 23.238c8.3984-0.74609 23.051-1.5859 43.961-2.5156 16.801-0.75781 36.586-1.3086 59.359-1.6875 4.8516-12.863 9.1484-24.062 12.883-33.59zm16.801-141.4c3.9141 3.7305 5.3125 6.0703 4.1992 7-8.9648 8.0312-16.238 12.602-21.84 13.727-2.8008 0.74609-4.7617 0.55859-5.8789-0.57031-0.56641-1.3008-0.46484-3.2578 0.28125-5.875 1.8633-5.2305 7.0938-11.57 15.68-19.039 1.1172-0.74219 3.6367 0.84375 7.5586 4.7578zm-57.398-52.074c0.18359-1.3086 1.4961-2.6133 3.9141-3.9258 4.6719-2.6133 12.32-3.6406 22.965-3.0742 1.1211 0 1.6797 2.8906 1.6797 8.6758 0 5.4141-0.55859 8.125-1.6797 8.125-11.574-0.37891-19.23-2.1562-22.965-5.3242-2.4219-1.4922-3.7305-2.9883-3.9141-4.4766zm38.359-77.285c1.3047-0.37109 3.168 0.089844 5.6016 1.3984l17.922 12.312c0.93359 0.75781-0.18359 3.457-3.3672 8.125-3.168 4.6602-5.2266 6.5312-6.1602 5.6016-3.543-2.6133-6.1602-4.8555-7.8398-6.7266l-2.8008-2.8008-2.2383-3.0664-2.5195-5.0391-0.55859-4.4844c0-1.8594 0.37109-3.3594 1.1133-4.4727zm161.84 375.2c-7.6562-21.102-14.285-40.039-19.887-56.84-55.434-0.18359-102.76-0.74609-141.96-1.6758-2.9844 6.7148-6.4414 15.301-10.359 25.762-3.5508 8.7695-6.3516 15.113-8.3984 19.039-2.4297 4.6602-5.0391 8.7695-7.8398 12.312zm-25.199-72.801c-4.3008-13.254-7.75-24.832-10.367-34.715-29.68 0.55859-64.305 0.92969-103.88 1.1133l-16.52 35.285c36.777-0.9375 80.363-1.4922 130.77-1.6836zm102.2-33.879-3.6406-7.5586-38.082 4.1992c-16.238 0.74609-35.566 1.5-57.965 2.2383 4.3008 10.641 8.7734 22.215 13.441 34.715 30.984-0.18359 64.398-0.27344 100.24-0.27344 3.168 0 6.3438 0.18359 9.5156 0.55859zm74.48 101.93c-0.18359-0.37109-0.56641-1.5-1.1211-3.3594-1.3047-2.9961-3.6406-6.0703-7-9.2383-3.7344-4.3008-9.7031-10.742-17.922-19.324l-15.121-21.828c-4.4805 1.3008-10.914 1.9609-19.312 1.9609h-94.086c6.1641 15.676 12.602 32.762 19.32 51.238 0.56641 1.8594 0.83984 3.6289 0.83984 5.3125l51.801 0.28516c4.1055 0 14.465 0.46094 31.078 1.3984 13.254 0.92969 22.863 1.2031 28.84 0.82812 4.0977 0 8.4961-0.55859 13.16-1.6758 3.9219-0.55859 6.8164-1.7695 8.6797-3.6406l0.56641-1.1133zm-223.17-164.09 92.398 1.3984c7.2852 0 13.719 0.46875 19.32 1.3984 8.3984 1.6875 15.121 4.4844 20.164 8.3984 4.8477 4.3008 9.4258 10.086 13.715 17.359 4.4844 8.7695 7.75 15.215 9.8008 19.324 3.5508 7.2734 7.1016 13.629 10.641 19.039l12.32 18.762c1.8633 2.8008 6.625 9.2383 14.281 19.312l15.398 19.324c8.0312 7.8281 14.094 14.184 18.199 19.027 3.9219 3.9258 6.9062 8.125 8.9609 12.602l1.6875 4.7812v5.875c-0.18359 2.2383-0.83984 4.1094-1.9648 5.6016l-1.3984 2.5273-1.957 1.668c-4.1055 3.7305-9.5195 6.2539-16.238 7.5586-3.3594 0.94141-8.4961 1.5859-15.398 1.9727-8.9648 0.17969-19.043-0.003907-30.242-0.57031-14-0.92969-24.176-1.3984-30.52-1.3984l-104.72-0.27344v0.55859c0 13.07-1.3047 22.398-3.9219 28-1.1211 1.8711-2.0508 3.0859-2.8008 3.6406 3.7305-0.1875 6.4414-0.28516 8.1211-0.28516l14.84-0.27344c4.4805-0.19531 10.266 0.27344 17.359 1.3984 8.5859 2.2305 14.84 5.0273 18.762 8.3984 3.9219 3.168 5.8867 7.4609 5.8867 12.875 0 1.6875-0.46875 4.0156-1.3984 7-0.18359 0.92969-1.0312 2.8008-2.5195 5.6016l0.55859-0.27344c-1.6797 2.8008-3.8242 4.8438-6.4336 6.1602l-6.1641 2.5156c-2.4258 0.55859-6.1602 1.0312-11.199 1.3984l-163.25 5.3242c-4.1055-0.37891-7.1016-0.94141-8.9648-1.6875-5.0352-1.3086-8.7695-3.6406-11.199-7-2.0508-3.168-3.0781-6.7148-3.0781-10.641-0.37109-3.9141-0.09375-7.4688 0.83984-10.641 1.4961-7.2734 4.0156-10.914 7.5586-10.914 3.168 0.18359 5.2305 4.0977 6.1602 11.762l1.6836 8.1211c0.18359 1.3008 0.46484 2.2305 0.83594 2.8008 0 0.18359 0.56641 0.37109 1.6797 0.55859 1.5 0.55859 3.457 0.83984 5.8867 0.83984l140.56-3.0859h0.55859l1.3984-0.28516 26.887-1.3984 2.5156-0.82812 0.5625-0.28906c1.3047-2.9844 1.9609-4.6719 1.9609-5.0391 0-0.92969-0.46484-1.7695-1.3984-2.5156-1.8633-1.8711-5.7852-3.6406-11.762-5.3242-5.6016-0.92969-10.457-1.3984-14.566-1.3984l-14.559-0.27344c-3.7344-0.18359-12.602 0-26.602 0.55859l-23.238 1.6875c-13.816 0.92969-25.945 1.4883-36.398 1.6758h-41.16l-12.879-2.2383 46.48-5.0273h0.83984c-0.375-0.19531-0.56641-0.46875-0.56641-0.83984-2.8008-7.1016-4.1992-19.324-4.1992-36.688 0-1.8711 2.8008-2.8008 8.3984-2.8008 5.6016 0 8.3984 0.92969 8.3984 2.8008 0 17.359-1.3984 29.586-4.1992 36.688l57.965-7c6.3438-0.37109 11.762-0.65625 16.234-0.83984-1.1211-0.92969-2.0508-2.3281-2.8008-4.1992-2.9844-5.6016-4.4805-14.93-4.4805-28 0-0.18359 0.09375-0.37109 0.28125-0.55859l-256.2-0.55859-12.031-1.9883c-2.0547-0.37109-3.1758-0.64453-3.3672-0.82812l-3.3555-1.6914c-3.5508-1.6875-6.2539-3.9141-8.1211-6.7148-0.74219-1.125-1.3984-2.8008-1.957-5.0391 0-3.168 0.09375-5.0391 0.28125-5.6016 0.18359-1.6875 1.1211-4.3867 2.8008-8.125l76.719-99.676c7.2812-9.7109 12.414-16.238 15.398-19.602l8.4023-8.6836 8.1133-6.4414c5.6016-3.543 8.7734-4.4727 9.5195-2.8008 1.1211 1.3086-0.09375 4.3008-3.6328 8.9727l-14 22.109c2.6133-0.74609 5.5-1.1133 8.6797-1.1133 26.504 0 51.336 0.089844 74.48 0.27344 0.93359-1.8711 1.7695-3.543 2.5195-5.0391 2.6133-5.9688 4.7617-10.359 6.4336-13.16l7.2852-13.16c1.4961-2.2383 2.9844-3.832 4.4805-4.7617-7.6562 0.18359-15.031 0.55859-22.121 1.1133-21.465 1.8711-36.215 2.6133-44.238 2.2383-7.4648-0.37109-13.344-1.1133-17.633-2.2383l-3.3672-0.83984 3.6406 0.28906h17.922c8.9609-0.18359 23.52-1.7695 43.68-4.7617 22.207-2.9766 49.461-4.9492 81.75-5.8789zm91 11.762-34.434-1.1211c-3.1758-0.18359-22.496-0.92969-57.965-2.2383-17.359 0-33.602 0.28516-48.715 0.83984 2.0508 1.6875 2.9844 4.1992 2.8008 7.5586-0.18359 2.2383-0.93359 4.3867-2.2383 6.4414l-10.922 22.961c35.094 0.37109 66.266 0.83984 93.52 1.3984-0.93359-2.9844-1.5859-5.7852-1.9609-8.3984-1.5-8.5859-2.3359-14.84-2.5195-18.762l0.28125-3.3594c0.37109 0.18359 1.1211 1.1133 2.2383 2.8008 2.0508 3.543 4.7617 9.1445 8.1133 16.801 1.5 3.543 2.9844 7.2734 4.4844 11.199 25.199 0.55859 46.387 1.3984 63.559 2.5156l37.52 3.6406-0.83984-2.2383c-7.6484-16.613-14.371-27.344-20.16-32.199-6.5312-4.8555-17.449-7.4727-32.762-7.8398zm-100.8-66.637c0 11.387-1.3008 19.5-3.9141 24.359-1.5 2.4297-2.9844 3.7305-4.4844 3.9141l-3.9141-3.9141c-2.8008-4.8555-4.1992-12.969-4.1992-24.359 0-1.3086 2.6992-1.9727 8.1133-1.9727 5.6016 0.007812 8.3984 0.66406 8.3984 1.9727zm64.402-12.324c0.56641 2.4297 0.375 4.1094-0.55859 5.0391l-1.1211 0.55859c-1.3047 0.55859-2.7031 0.65625-4.1992 0.28516-4.8477-0.37109-10.543-3.3594-17.078-8.9609-0.74609-0.75781 0.83984-2.9961 4.7617-6.7266 3.3672-3.543 5.6016-5.3125 6.7188-5.3125 6.5312 5.2266 10.363 10.262 11.477 15.117zm7.5664-59.074c0-5.6016 0.64844-8.3984 1.9609-8.3984 10.078 0 17.266 1.4883 21.566 4.4727l3.6328 3.9258-3.6406 4.4727c-4.3008 2.6133-11.484 3.9258-21.566 3.9258-1.3047 0-1.9531-2.8008-1.9531-8.3984zm-56-47.328c-3.1758-1.6758-6.9062-3.2695-11.199-4.7617-3.5508-1.1133-5.5039-1.8711-5.8789-2.2383 0.37109-0.37109 2.5156-0.55859 6.4336-0.55859 5.2305 0.55859 9.6133 1.4883 13.164 2.8008 7.8359 2.6133 14.559 7.4688 20.16 14.559 8.5859 10.457 12.414 23.238 11.48 38.359-0.55859 9.7109-3.168 18.484-7.8359 26.324-5.7852 10.445-13.719 18.199-23.801 23.238-10.832 5.6016-23.43 7.3711-37.801 5.3125-16.43-1.8711-29.871-8.6875-40.32-20.441-5.7852-6.1602-9.8945-13.531-12.32-22.113-2.9844-8.9609-3.7344-18.109-2.2383-27.441 1.3047-10.086 5.2305-19.129 11.766-27.16 7.4648-8.5859 16.52-14.102 27.16-16.527l6.1641-1.3984c2.4258-0.18359 5.1289 0.10156 8.1133 0.83984 6.7188 1.125 9.7031 3.457 8.9648 7-0.18359 2.8008-2.9844 5.0391-8.3984 6.7266l-10.641 3.0742c-7.4648 1.6875-13.535 5.4141-18.199 11.199-4.6641 5.2305-7.4648 11.484-8.3984 18.762-2.2578 14.375 1.1914 26.605 10.344 36.688 7.6484 8.7695 17.633 14.09 29.961 15.961 11.57 1.8711 21.559 0.74609 29.961-3.3594 7.4688-3.3594 13.816-9.0547 19.039-17.086 3.7344-6.3438 6.0664-13.344 7-21 1.4961-12.5-0.74609-23.23-6.7188-32.199-3.7422-5.9727-9.0586-10.828-15.961-14.559zm-17.367-49.84c0.93359 4.3008 1.5859 7.4688 1.9648 9.5273 0.37109 5.9688-0.18359 10.914-1.6797 14.84 0 0.74609-0.65625 1.2031-1.9648 1.3984-1.6797 0.18359-3.9219-0.37891-6.7188-1.6875-5.4141-2.8008-7.6484-4.5703-6.7148-5.3125 0.74609-2.4297 1.1133-7.8398 1.1133-16.238 0-5.0391 0.28516-8.7695 0.83984-11.199 0.74609-2.2383 1.4961-3.832 2.2383-4.7617l1.4062-0.83984c1.3008 0 2.8008 1.4883 4.4805 4.4727 1.4922 1.8711 3.1719 5.1445 5.0352 9.8008zm64.688 25.766c1.8633-0.19531 3.4492-0.19531 4.7617 0l1.1211 0.55859 0.28125 1.6758c0.18359 1.3086-0.09375 2.7109-0.83984 4.1992-2.8008 5.4141-8.9609 11.672-18.48 18.77-1.6797 0-3.9219-1.7812-6.7188-5.3242-3.3594-4.2891-4.5703-6.8984-3.6328-7.8398 9.875-7.0938 17.723-11.109 23.508-12.039z" fill-rule="evenodd"/>
  <use x="70" y="644" xlink:href="#w"/>
  <use x="90.550781" y="644" xlink:href="#c"/>
  <use x="104.359375" y="644" xlink:href="#a"/>
  <use x="123.347656" y="644" xlink:href="#f"/>
  <use x="142.242188" y="644" xlink:href="#b"/>
  <use x="155.628906" y="644" xlink:href="#a"/>
  <use x="174.617188" y="644" xlink:href="#m"/>
  <use x="204.410156" y="644" xlink:href="#l"/>
  <use x="224.453125" y="644" xlink:href="#k"/>
  <use x="252.453125" y="644" xlink:href="#j"/>
  <use x="272.617188" y="644" xlink:href="#f"/>
  <use x="291.511719" y="644" xlink:href="#a"/>
  <use x="310.5" y="644" xlink:href="#i"/>
  <use x="322.683594" y="644" xlink:href="#e"/>
  <use x="342.617188" y="644" xlink:href="#h"/>
  <use x="361.960938" y="644" xlink:href="#v"/>
  <use x="389.828125" y="644" xlink:href="#e"/>
  <use x="409.757812" y="644" xlink:href="#u"/>
  <use x="426.425781" y="644" xlink:href="#h"/>
  <use x="436.023438" y="644" xlink:href="#t"/>
  <use x="445.621094" y="644" xlink:href="#g"/>
  <use x="70" y="672" xlink:href="#i"/>
  <use x="82.183594" y="672" xlink:href="#c"/>
  <use x="95.992188" y="672" xlink:href="#d"/>
  <use x="115.226562" y="672" xlink:href="#g"/>
  <use x="154.152344" y="672" xlink:href="#b"/>
  <use x="167.535156" y="672" xlink:href="#s"/>
  <use x="187.46875" y="672" xlink:href="#a"/>
  <use x="216.207031" y="672" xlink:href="#r"/>
  <use x="239.640625" y="672" xlink:href="#d"/>
  <use x="258.878906" y="672" xlink:href="#e"/>
  <use x="278.8125" y="672" xlink:href="#q"/>
  <use x="308.492188" y="672" xlink:href="#p"/>
  <use x="329.015625" y="672" xlink:href="#c"/>
  <use x="342.820312" y="672" xlink:href="#d"/>
  <use x="362.058594" y="672" xlink:href="#o"/>
  <use x="371.65625" y="672" xlink:href="#a"/>
  <use x="390.648438" y="672" xlink:href="#n"/>
  <use x="407.242188" y="672" xlink:href="#b"/>
 </g>
</svg>
