<?xml version="1.0" encoding="UTF-8"?>
<svg width="700pt" height="700pt" version="1.1" viewBox="0 0 700 700" xmlns="http://www.w3.org/2000/svg" xmlns:xlink="http://www.w3.org/1999/xlink">
 <defs>
  <symbol id="t" overflow="visible">
   <path d="m8.4531-0.5c-0.4375 0.21875-0.89844 0.38672-1.375 0.5-0.46875 0.11328-0.96094 0.17188-1.4688 0.17188-1.5312 0-2.7461-0.42578-3.6406-1.2812-0.89844-0.85156-1.3438-2.0156-1.3438-3.4844s0.44531-2.6289 1.3438-3.4844c0.89453-0.85156 2.1094-1.2812 3.6406-1.2812 0.50781 0 1 0.058594 1.4688 0.17188 0.47656 0.11719 0.9375 0.28906 1.375 0.51562v1.9062c-0.44922-0.30078-0.88672-0.51953-1.3125-0.65625-0.41797-0.14453-0.86719-0.21875-1.3438-0.21875-0.84375 0-1.5117 0.27344-2 0.8125-0.48047 0.54297-0.71875 1.2891-0.71875 2.2344 0 0.94922 0.23828 1.6953 0.71875 2.2344 0.48828 0.54297 1.1562 0.8125 2 0.8125 0.47656 0 0.92578-0.066406 1.3438-0.20312 0.42578-0.13281 0.86328-0.35156 1.3125-0.65625z"/>
  </symbol>
  <symbol id="b" overflow="visible">
   <path d="m6.1875-5.0156c-0.19922-0.09375-0.39844-0.16016-0.59375-0.20312-0.1875-0.039062-0.375-0.0625-0.5625-0.0625-0.5625 0-1 0.18359-1.3125 0.54688-0.30469 0.36719-0.45312 0.88672-0.45312 1.5625v3.1719h-2.2031v-6.8906h2.2031v1.125c0.28125-0.44531 0.60156-0.77344 0.96875-0.98438 0.375-0.20703 0.81641-0.3125 1.3281-0.3125 0.070312 0 0.14844 0.007812 0.23438 0.015625 0.082031 0 0.20703 0.011719 0.375 0.03125z"/>
  </symbol>
  <symbol id="a" overflow="visible">
   <path d="m7.9375-3.4688v0.625h-5.1406c0.050781 0.52344 0.23438 0.91406 0.54688 1.1719 0.32031 0.26172 0.76953 0.39062 1.3438 0.39062 0.46875 0 0.94141-0.066406 1.4219-0.20312 0.48828-0.14453 0.98828-0.35938 1.5-0.64062v1.7031c-0.52344 0.19922-1.043 0.34375-1.5625 0.4375-0.52344 0.10156-1.043 0.15625-1.5625 0.15625-1.25 0-2.2188-0.3125-2.9062-0.9375-0.6875-0.63281-1.0312-1.5234-1.0312-2.6719 0-1.125 0.33594-2.0078 1.0156-2.6562 0.67578-0.64453 1.6094-0.96875 2.7969-0.96875 1.082 0 1.9453 0.32812 2.5938 0.98438 0.65625 0.64844 0.98438 1.5156 0.98438 2.6094zm-2.2656-0.73438c0-0.41406-0.125-0.75-0.375-1-0.24219-0.25781-0.55469-0.39062-0.9375-0.39062-0.42969 0-0.77734 0.12109-1.0469 0.35938-0.27344 0.24219-0.4375 0.58594-0.5 1.0312z"/>
  </symbol>
  <symbol id="e" overflow="visible">
   <path d="m4.1562-3.1094c-0.46875 0-0.82031 0.078125-1.0469 0.23438-0.23047 0.15625-0.34375 0.39062-0.34375 0.70312 0 0.27344 0.09375 0.49219 0.28125 0.65625 0.1875 0.15625 0.44531 0.23438 0.78125 0.23438 0.40625 0 0.75-0.14453 1.0312-0.4375 0.28906-0.30078 0.4375-0.67578 0.4375-1.125v-0.26562zm3.3594-0.82812v3.9375h-2.2188v-1.0156c-0.29297 0.41797-0.625 0.71875-1 0.90625-0.36719 0.1875-0.8125 0.28125-1.3438 0.28125-0.71875 0-1.3047-0.20703-1.75-0.625-0.4375-0.41406-0.65625-0.95312-0.65625-1.6094 0-0.8125 0.27344-1.4062 0.82812-1.7812 0.55078-0.38281 1.4258-0.57812 2.625-0.57812h1.2969v-0.17188c0-0.34375-0.14062-0.59375-0.42188-0.75-0.27344-0.16406-0.69922-0.25-1.2812-0.25-0.46875 0-0.90625 0.046875-1.3125 0.14062s-0.78906 0.23438-1.1406 0.42188v-1.6875c0.47656-0.11328 0.95312-0.19531 1.4219-0.25 0.47656-0.0625 0.95703-0.09375 1.4375-0.09375 1.2383 0 2.1328 0.24609 2.6875 0.73438 0.55078 0.49219 0.82812 1.2891 0.82812 2.3906z"/>
  </symbol>
  <symbol id="d" overflow="visible">
   <path d="m3.4688-8.8594v1.9688h2.2656v1.5781h-2.2656v2.9219c0 0.3125 0.0625 0.52734 0.1875 0.64062 0.125 0.11719 0.37891 0.17188 0.76562 0.17188h1.125v1.5781h-1.8906c-0.86719 0-1.4805-0.17969-1.8438-0.54688-0.36719-0.36328-0.54688-0.97656-0.54688-1.8438v-2.9219h-1.0938v-1.5781h1.0938v-1.9688z"/>
  </symbol>
  <symbol id="j" overflow="visible">
   <path d="m5.75-5.8906v-3.6875h2.2188v9.5781h-2.2188v-1c-0.30469 0.40625-0.63672 0.70312-1 0.89062-0.36719 0.1875-0.78906 0.28125-1.2656 0.28125-0.85547 0-1.5586-0.33203-2.1094-1-0.54297-0.67578-0.8125-1.5469-0.8125-2.6094s0.26953-1.9297 0.8125-2.6094c0.55078-0.67578 1.2539-1.0156 2.1094-1.0156 0.46875 0 0.88281 0.10156 1.25 0.29688 0.375 0.1875 0.71094 0.48047 1.0156 0.875zm-1.4531 4.4688c0.46875 0 0.82812-0.17188 1.0781-0.51562s0.375-0.84375 0.375-1.5-0.125-1.1562-0.375-1.5c-0.25-0.35156-0.60938-0.53125-1.0781-0.53125s-0.82812 0.17969-1.0781 0.53125c-0.25 0.34375-0.375 0.84375-0.375 1.5s0.125 1.1562 0.375 1.5 0.60938 0.51562 1.0781 0.51562z"/>
  </symbol>
  <symbol id="i" overflow="visible">
   <path d="m4.7344-1.4219c0.46875 0 0.82812-0.17188 1.0781-0.51562s0.375-0.84375 0.375-1.5-0.125-1.1562-0.375-1.5c-0.25-0.35156-0.60938-0.53125-1.0781-0.53125-0.48047 0-0.84375 0.17969-1.0938 0.53125-0.25 0.34375-0.375 0.84375-0.375 1.5 0 0.64844 0.125 1.1484 0.375 1.5 0.25 0.34375 0.61328 0.51562 1.0938 0.51562zm-1.4688-4.4688c0.30078-0.39453 0.63281-0.6875 1-0.875 0.375-0.19531 0.80078-0.29688 1.2812-0.29688 0.85156 0 1.5508 0.33984 2.0938 1.0156 0.53906 0.67969 0.8125 1.5469 0.8125 2.6094s-0.27344 1.9336-0.8125 2.6094c-0.54297 0.66797-1.2422 1-2.0938 1-0.48047 0-0.90625-0.09375-1.2812-0.28125-0.36719-0.1875-0.69922-0.48438-1-0.89062v1h-2.2031v-9.5781h2.2031z"/>
  </symbol>
  <symbol id="h" overflow="visible">
   <path d="m0.15625-6.8906h2.2031l1.8594 4.6719 1.5625-4.6719h2.2031l-2.8906 7.5469c-0.29297 0.75781-0.63672 1.2891-1.0312 1.5938-0.38672 0.3125-0.89844 0.46875-1.5312 0.46875h-1.2656v-1.4375h0.6875c0.375 0 0.64453-0.0625 0.8125-0.1875 0.16406-0.11719 0.30078-0.32812 0.40625-0.64062l0.046875-0.1875z"/>
  </symbol>
  <symbol id="g" overflow="visible">
   <path d="m1.0625-9.5781h2.2031v5.2188l2.5312-2.5312h2.5625l-3.3594 3.1562 3.625 3.7344h-2.6719l-2.6875-2.875v2.875h-2.2031z"/>
  </symbol>
  <symbol id="f" overflow="visible">
   <path d="m7.4531-5.75c0.28125-0.42578 0.60938-0.75 0.98438-0.96875 0.38281-0.22656 0.80469-0.34375 1.2656-0.34375 0.78906 0 1.3945 0.24609 1.8125 0.73438 0.41406 0.49219 0.625 1.1992 0.625 2.125v4.2031h-2.2188v-3.5938c0.007813-0.050781 0.015625-0.10156 0.015625-0.15625v-0.26562c0-0.47656-0.074219-0.82812-0.21875-1.0469-0.14844-0.22656-0.375-0.34375-0.6875-0.34375-0.42969 0-0.75781 0.17969-0.98438 0.53125-0.21875 0.34375-0.33594 0.83984-0.34375 1.4844v3.3906h-2.2188v-3.5938c0-0.75781-0.070313-1.25-0.20312-1.4688-0.125-0.22656-0.35547-0.34375-0.6875-0.34375-0.42969 0-0.75781 0.17969-0.98438 0.53125-0.23047 0.34375-0.34375 0.83984-0.34375 1.4844v3.3906h-2.2188v-6.8906h2.2188v1c0.26953-0.38281 0.57812-0.67578 0.92188-0.875 0.35156-0.19531 0.74219-0.29688 1.1719-0.29688 0.47656 0 0.89844 0.11719 1.2656 0.34375 0.36328 0.23047 0.64062 0.55469 0.82812 0.96875z"/>
  </symbol>
  <symbol id="c" overflow="visible">
   <path d="m4.3438-5.4844c-0.49219 0-0.86719 0.17969-1.125 0.53125-0.25 0.34375-0.375 0.85156-0.375 1.5156 0 0.65625 0.125 1.1641 0.375 1.5156 0.25781 0.35547 0.63281 0.53125 1.125 0.53125 0.47656 0 0.84375-0.17578 1.0938-0.53125 0.25781-0.35156 0.39062-0.85938 0.39062-1.5156 0-0.66406-0.13281-1.1719-0.39062-1.5156-0.25-0.35156-0.61719-0.53125-1.0938-0.53125zm0-1.5781c1.1875 0 2.1133 0.32422 2.7812 0.96875 0.66406 0.63672 1 1.5234 1 2.6562 0 1.125-0.33594 2.0117-1 2.6562-0.66797 0.63672-1.5938 0.95312-2.7812 0.95312s-2.1211-0.31641-2.7969-0.95312c-0.66797-0.64453-1-1.5312-1-2.6562 0-1.1328 0.33203-2.0195 1-2.6562 0.67578-0.64453 1.6094-0.96875 2.7969-0.96875z"/>
  </symbol>
  <symbol id="s" overflow="visible">
   <path d="m0.1875-6.8906h2.2031l1.7188 4.7656 1.7188-4.7656h2.2031l-2.7188 6.8906h-2.4062z"/>
  </symbol>
  <symbol id="r" overflow="visible">
   <path d="m5.5938-9.5781v1.4375h-1.2188c-0.3125 0-0.53125 0.058594-0.65625 0.17188-0.11719 0.11719-0.17188 0.3125-0.17188 0.59375v0.48438h1.875v1.5781h-1.875v5.3125h-2.2031v-5.3125h-1.1094v-1.5781h1.1094v-0.48438c0-0.75 0.20703-1.3008 0.625-1.6562 0.41406-0.36328 1.0625-0.54688 1.9375-0.54688z"/>
  </symbol>
  <symbol id="q" overflow="visible">
   <path d="m7.9844-4.2031v4.2031h-2.2031v-3.2031c0-0.60156-0.015625-1.0156-0.046875-1.2344-0.03125-0.22656-0.078125-0.39453-0.14062-0.5-0.085938-0.14453-0.19922-0.25781-0.34375-0.34375-0.14844-0.082031-0.32031-0.125-0.51562-0.125-0.46094 0-0.82031 0.18359-1.0781 0.54688-0.26172 0.35547-0.39062 0.84375-0.39062 1.4688v3.3906h-2.2031v-9.5781h2.2031v3.6875c0.33203-0.39453 0.67969-0.6875 1.0469-0.875 0.375-0.19531 0.78906-0.29688 1.25-0.29688 0.78906 0 1.3906 0.24609 1.7969 0.73438 0.41406 0.49219 0.625 1.1992 0.625 2.125z"/>
  </symbol>
  <symbol id="p" overflow="visible">
   <path d="m1.1562-9.1875h2.6562l3.3281 6.2969v-6.2969h2.25v9.1875h-2.6406l-3.3438-6.3125v6.3125h-2.25z"/>
  </symbol>
  <symbol id="o" overflow="visible">
   <path d="m0.98438-2.6875v-4.2031h2.2188v0.6875c0 0.375-0.007813 0.84375-0.015625 1.4062v1.125c0 0.55469 0.015625 0.95312 0.046875 1.2031 0.03125 0.24219 0.078125 0.41797 0.14062 0.53125 0.09375 0.14844 0.21094 0.26172 0.35938 0.34375 0.14453 0.074219 0.3125 0.10938 0.5 0.10938 0.45703 0 0.81641-0.17578 1.0781-0.53125 0.26953-0.35156 0.40625-0.84375 0.40625-1.4688v-3.4062h2.2031v6.8906h-2.2031v-1c-0.33594 0.40625-0.6875 0.70312-1.0625 0.89062s-0.78906 0.28125-1.2344 0.28125c-0.79297 0-1.3984-0.23828-1.8125-0.71875-0.41797-0.48828-0.625-1.2031-0.625-2.1406z"/>
  </symbol>
  <symbol id="n" overflow="visible">
   <path d="m7.9844-4.2031v4.2031h-2.2031v-3.2188c0-0.59375-0.015625-1-0.046875-1.2188-0.03125-0.22656-0.078125-0.39453-0.14062-0.5-0.085938-0.14453-0.19922-0.25781-0.34375-0.34375-0.14844-0.082031-0.32031-0.125-0.51562-0.125-0.46094 0-0.82031 0.18359-1.0781 0.54688-0.26172 0.35547-0.39062 0.84375-0.39062 1.4688v3.3906h-2.2031v-6.8906h2.2031v1c0.33203-0.39453 0.67969-0.6875 1.0469-0.875 0.375-0.19531 0.78906-0.29688 1.25-0.29688 0.78906 0 1.3906 0.24609 1.7969 0.73438 0.41406 0.49219 0.625 1.1992 0.625 2.125z"/>
  </symbol>
  <symbol id="m" overflow="visible">
   <path d="m1.1562-9.1875h3.9375c1.1641 0 2.0625 0.26172 2.6875 0.78125 0.625 0.51172 0.9375 1.25 0.9375 2.2188 0 0.96094-0.3125 1.6992-0.9375 2.2188-0.625 0.52344-1.5234 0.78125-2.6875 0.78125h-1.5625v3.1875h-2.375zm2.375 1.7188v2.5625h1.3125c0.45703 0 0.8125-0.10938 1.0625-0.32812 0.25-0.22656 0.375-0.54688 0.375-0.95312 0-0.41406-0.125-0.73438-0.375-0.95312s-0.60547-0.32812-1.0625-0.32812z"/>
  </symbol>
  <symbol id="l" overflow="visible">
   <path d="m1.0625-6.8906h2.2031v6.7656c0 0.92578-0.22656 1.6289-0.67188 2.1094-0.4375 0.48828-1.0781 0.73438-1.9219 0.73438h-1.0938v-1.4375h0.39062c0.41406 0 0.70312-0.10156 0.85938-0.29688 0.15625-0.1875 0.23438-0.55859 0.23438-1.1094zm0-2.6875h2.2031v1.7969h-2.2031z"/>
  </symbol>
  <symbol id="k" overflow="visible">
   <path d="m6.625-6.6875v1.8125c-0.29297-0.20703-0.58984-0.35938-0.89062-0.45312-0.30469-0.10156-0.61719-0.15625-0.9375-0.15625-0.625 0-1.1094 0.18359-1.4531 0.54688-0.33594 0.35547-0.5 0.85547-0.5 1.5 0 0.64844 0.16406 1.1523 0.5 1.5156 0.34375 0.35547 0.82812 0.53125 1.4531 0.53125 0.34375 0 0.66406-0.050781 0.96875-0.15625 0.3125-0.10156 0.59766-0.25391 0.85938-0.45312v1.7969c-0.34375 0.125-0.69531 0.21875-1.0469 0.28125-0.35547 0.0625-0.71094 0.09375-1.0625 0.09375-1.25 0-2.2266-0.31641-2.9219-0.95312-0.69922-0.63281-1.0469-1.5195-1.0469-2.6562 0-1.1328 0.34766-2.0195 1.0469-2.6562 0.69531-0.64453 1.6719-0.96875 2.9219-0.96875 0.36328 0 0.71875 0.03125 1.0625 0.09375 0.35156 0.0625 0.70312 0.15625 1.0469 0.28125z"/>
  </symbol>
 </defs>
 <g>
  <path d="m443.33 560h-239.64c40.359-234.59 254.77-234.59 239.64 0z" fill-rule="evenodd"/>
  <path d="m493.79 295.14c0 47.367-38.398 85.766-85.766 85.766-47.367 0-85.766-38.398-85.766-85.766 0-47.367 38.398-85.766 85.766-85.766 47.367 0 85.766 38.398 85.766 85.766" fill-rule="evenodd"/>
  <path d="m463.51 52.973c0 47.93-40.359 40.359-47.93 88.289-2.5234 5.0469-52.973 17.656 0-52.973 15.137-20.18 15.137-40.359 2.5234-50.449-20.18-17.656-42.883-7.5664-52.973 7.5664-2.5234 0-10.09-45.406 45.406-45.406 30.27 0 52.973 20.18 52.973 52.973z"/>
  <path d="m418.11 171.53c0 8.3594-6.7773 15.137-15.137 15.137s-15.137-6.7773-15.137-15.137 6.7773-15.137 15.137-15.137 15.137 6.7773 15.137 15.137" fill-rule="evenodd"/>
  <use x="203.695312" y="597.835938" xlink:href="#t"/>
  <use x="212.949219" y="597.835938" xlink:href="#b"/>
  <use x="219.171875" y="597.835938" xlink:href="#a"/>
  <use x="227.722656" y="597.835938" xlink:href="#e"/>
  <use x="236.234375" y="597.835938" xlink:href="#d"/>
  <use x="242.265625" y="597.835938" xlink:href="#a"/>
  <use x="250.820312" y="597.835938" xlink:href="#j"/>
  <use x="264.238281" y="597.835938" xlink:href="#i"/>
  <use x="273.265625" y="597.835938" xlink:href="#h"/>
  <use x="285.878906" y="597.835938" xlink:href="#g"/>
  <use x="294.265625" y="597.835938" xlink:href="#e"/>
  <use x="302.777344" y="597.835938" xlink:href="#b"/>
  <use x="308.996094" y="597.835938" xlink:href="#a"/>
  <use x="317.550781" y="597.835938" xlink:href="#a"/>
  <use x="326.105469" y="597.835938" xlink:href="#f"/>
  <use x="339.25" y="597.835938" xlink:href="#c"/>
  <use x="347.914062" y="597.835938" xlink:href="#s"/>
  <use x="203.695312" y="610.449219" xlink:href="#r"/>
  <use x="209.179688" y="610.449219" xlink:href="#b"/>
  <use x="215.402344" y="610.449219" xlink:href="#c"/>
  <use x="224.066406" y="610.449219" xlink:href="#f"/>
  <use x="241.597656" y="610.449219" xlink:href="#d"/>
  <use x="247.628906" y="610.449219" xlink:href="#q"/>
  <use x="256.609375" y="610.449219" xlink:href="#a"/>
  <use x="269.550781" y="610.449219" xlink:href="#p"/>
  <use x="280.109375" y="610.449219" xlink:href="#c"/>
  <use x="288.773438" y="610.449219" xlink:href="#o"/>
  <use x="297.753906" y="610.449219" xlink:href="#n"/>
  <use x="311.121094" y="610.449219" xlink:href="#m"/>
  <use x="320.367188" y="610.449219" xlink:href="#b"/>
  <use x="326.585938" y="610.449219" xlink:href="#c"/>
  <use x="335.25" y="610.449219" xlink:href="#l"/>
  <use x="339.574219" y="610.449219" xlink:href="#a"/>
  <use x="348.128906" y="610.449219" xlink:href="#k"/>
  <use x="355.605469" y="610.449219" xlink:href="#d"/>
 </g>
</svg>
